<?xml version="1.0" encoding="UTF-8" standalone="no"?>
<!DOCTYPE svg PUBLIC "-//W3C//DTD SVG 1.1//EN" "http://www.w3.org/Graphics/SVG/1.1/DTD/svg11.dtd">
<svg xmlns="http://www.w3.org/2000/svg" xmlns:xlink="http://www.w3.org/1999/xlink" version="1.1" width="318.452pt" height="128.891pt" viewBox="0 0 318.452 128.891">
<path transform="matrix(1,0,0,-1,-10.853,315.531)" stroke-width="1.59404" stroke-linecap="butt" stroke-miterlimit="10" stroke-linejoin="miter" fill="none" stroke="#000080" d="M 56.69362 255.12128 L 56.8173 258.82899 L 57.18063 262.52027 L 57.78445 266.1804 L 58.6253 269.7947 L 59.70407 273.3441 L 61.0112 276.81565 L 62.54237 280.19465 L 64.28897 283.4681 L 66.25009 286.61698 L 68.41106 289.6326 L 70.76492 292.5012 L 73.29874 295.20976 L 76.00728 297.7436 L 78.87589 300.09745 L 81.89154 302.2584 L 85.04042 304.21955 L 88.31386 305.96614 L 91.69286 307.4973 L 95.1644 308.80445 L 98.7138 309.88319 L 102.3281 310.72404 L 105.98824 311.32789 L 109.67952 311.6912 L 113.38724 311.8149 "/>
<path transform="matrix(1,0,0,-1,-10.853,315.531)" stroke-width="1.59404" stroke-linecap="butt" stroke-miterlimit="10" stroke-linejoin="miter" fill="none" stroke="#000080" d="M 226.77448 255.12128 L 230.48218 255.24498 L 234.17346 255.6083 L 237.83359 256.21214 L 241.44788 257.05299 L 244.9973 258.13175 L 248.46884 259.43888 L 251.84783 260.97007 L 255.12128 262.71665 L 258.27015 264.67778 L 261.2858 266.83876 L 264.1544 269.1926 L 266.86296 271.7264 L 269.39677 274.43495 L 271.75065 277.30357 L 273.9116 280.3192 L 275.8727 283.4681 L 277.61933 286.74153 L 279.15049 290.12055 L 280.4576 293.59208 L 281.53639 297.14149 L 282.37724 300.75578 L 282.98106 304.4159 L 283.3444 308.10719 L 283.4681 311.8149 "/>
<path transform="matrix(1,0,0,-1,-10.853,315.531)" stroke-width="1" stroke-linecap="butt" stroke-miterlimit="10" stroke-linejoin="miter" fill="none" stroke="#ff0000" d="M 54.42581 251.75612 L 54.75627 253.18784 L 55.08673 254.6191 L 55.41718 256.05039 L 55.74763 257.48207 L 56.0781 258.91337 L 56.40855 260.3446 L 56.73901 261.77586 L 57.06949 263.20759 L 57.39995 264.63887 L 57.73041 266.0701 L 58.06087 267.5018 L 58.39133 268.93266 L 58.72177 270.3639 L 59.05223 271.79518 L 59.38269 273.22688 L 59.71315 274.65815 L 60.04361 276.08943 L 60.37407 277.52113 L 60.70453 278.9524 L 61.03499 280.38365 L 61.36545 281.81495 L 61.69589 283.24665 L 62.02637 284.6779 L 62.35683 286.10917 "/>
<path transform="matrix(1,0,0,-1,-10.853,315.531)" stroke-width="1" stroke-linecap="butt" stroke-miterlimit="10" stroke-linejoin="miter" fill="none" stroke="#ff0000" d="M 65.19774 287.10877 L 66.1424 288.0534 L 67.08705 288.99809 L 68.03172 289.94276 L 68.97638 290.8874 L 69.92105 291.83207 L 70.86572 292.77674 L 71.81036 293.7214 L 72.75504 294.66606 L 73.6997 295.61073 L 74.64436 296.5554 L 75.58904 297.50007 L 76.53368 298.44474 L 77.47835 299.38938 L 78.42302 300.334 L 79.36768 301.2787 L 80.31235 302.22337 L 81.257 303.16804 L 82.20166 304.1127 L 83.14633 305.0578 L 84.091 306.00248 L 85.03566 306.9471 L 85.98032 307.89179 L 86.92499 308.83644 L 87.86964 309.7811 "/>
<path transform="matrix(1,0,0,-1,-10.853,315.531)" stroke-width="1" stroke-linecap="butt" stroke-miterlimit="10" stroke-linejoin="miter" fill="none" stroke="#ff0000" d="M 90.42638 308.64179 L 91.61888 308.852 L 92.81139 309.06224 L 94.0039 309.27244 L 95.19641 309.48265 L 96.38892 309.69288 L 97.58142 309.9035 L 98.77394 310.1137 L 99.96645 310.32395 L 101.15894 310.53416 L 102.35144 310.7444 L 103.54395 310.95417 L 104.73647 311.16438 L 105.92897 311.37458 L 107.12148 311.5848 L 108.31398 311.795 L 109.50648 312.00566 L 110.699 312.21586 L 111.89151 312.42607 L 113.08401 312.6363 L 114.27652 312.8465 L 115.46904 313.0567 L 116.66154 313.2669 L 117.85405 313.47715 L 119.04655 313.68736 "/>
<path transform="matrix(1,0,0,-1,-10.853,315.531)" stroke-width="1" stroke-linecap="butt" stroke-miterlimit="10" stroke-linejoin="miter" fill="none" stroke="#ff0000" d="M 221.10518 253.24709 L 222.53429 253.49883 L 223.9634 253.75099 L 225.3925 254.00273 L 226.82161 254.2549 L 228.25072 254.50664 L 229.67983 254.7588 L 231.10892 255.01055 L 232.53803 255.26273 L 233.96714 255.51488 L 235.39624 255.76662 L 236.82535 256.01838 L 238.25446 256.2701 L 239.68357 256.52226 L 241.11266 256.774 L 242.54177 257.02619 L 243.97087 257.27793 L 245.39998 257.5301 L 246.82909 257.7818 L 248.2582 258.03398 L 249.6873 258.28617 L 251.11641 258.5379 L 252.5455 258.79008 L 253.97461 259.0418 L 255.40372 259.29396 "/>
<path transform="matrix(1,0,0,-1,-10.853,315.531)" stroke-width="1" stroke-linecap="butt" stroke-miterlimit="10" stroke-linejoin="miter" fill="none" stroke="#ff0000" d="M 256.5387 261.40174 L 257.41246 262.27546 L 258.28617 263.1496 L 259.15989 264.02333 L 260.0336 264.89707 L 260.90733 265.77079 L 261.78105 266.64454 L 262.6548 267.51826 L 263.5285 268.39198 L 264.40226 269.2657 L 265.27598 270.13945 L 266.1497 271.01316 L 267.0234 271.88688 L 267.89714 272.7606 L 268.77088 273.6343 L 269.6446 274.50807 L 270.51835 275.38179 L 271.39204 276.25553 L 272.26579 277.12925 L 273.1395 278.00297 L 274.01325 278.8767 L 274.88697 279.7504 L 275.76069 280.62416 L 276.6344 281.4983 L 277.50813 282.372 "/>
<path transform="matrix(1,0,0,-1,-10.853,315.531)" stroke-width="1" stroke-linecap="butt" stroke-miterlimit="10" stroke-linejoin="miter" fill="none" stroke="#ff0000" d="M 278.36589 283.25703 L 278.67253 284.58534 L 278.9792 285.91365 L 279.28587 287.242 L 279.59254 288.5703 L 279.89924 289.89863 L 280.2059 291.22697 L 280.51258 292.55528 L 280.81925 293.8836 L 281.1259 295.21195 L 281.43257 296.54026 L 281.73924 297.8686 L 282.0459 299.19648 L 282.35258 300.52479 L 282.65925 301.8531 L 282.9659 303.1819 L 283.27259 304.5102 L 283.57926 305.83854 L 283.8859 307.16685 L 284.19258 308.49516 L 284.49925 309.8235 L 284.8059 311.15184 L 285.1126 312.48014 L 285.41929 313.80848 L 285.72596 315.1368 "/>
<symbol id="font_0_8">
<path d="M .63 .67700007 L .019000002 .67700007 L 0 .45200003 L .025000003 .45200003 C .039 .61300006 .054 .646 .20500002 .646 C .223 .646 .24900003 .646 .259 .64400008 C .28 .64000007 .28 .629 .28 .606 L .28 .079 C .28 .045 .28 .031000002 .17500001 .031000002 L .135 .031000002 L .135 0 C .17600002 .003 .278 .003 .324 .003 C .37 .003 .473 .003 .514 0 L .514 .031000002 L .47400005 .031000002 C .36900003 .031000002 .36900003 .045 .36900003 .079 L .36900003 .606 C .36900003 .62600007 .36900003 .64000007 .387 .64400008 C .398 .646 .425 .646 .444 .646 C .595 .646 .61 .61300006 .624 .45200003 L .64900007 .45200003 L .63 .67700007 Z "/>
</symbol>
<symbol id="font_0_f">
<path d="M .07800001 .076000008 C .07800001 .031000002 .067 .031000002 0 .031000002 L 0 0 C .035 .001 .08600001 .003 .113000009 .003 C .139 .003 .191 .001 .225 0 L .225 .031000002 C .158 .031000002 .147 .031000002 .147 .076000008 L .147 .26000003 C .147 .36400003 .218 .42000003 .282 .42000003 C .345 .42000003 .356 .36600004 .356 .30900003 L .356 .076000008 C .356 .031000002 .345 .031000002 .278 .031000002 L .278 0 C .31300003 .001 .36400003 .003 .391 .003 C .41700004 .003 .46900005 .001 .503 0 L .503 .031000002 C .451 .031000002 .42600004 .031000002 .425 .061000006 L .425 .252 C .425 .33800004 .425 .36900003 .39400003 .40500004 C .38000003 .42200003 .347 .44200004 .289 .44200004 C .20500002 .44200004 .161 .38200004 .14400001 .344 L .14400001 .694 L 0 .683 L 0 .652 C .07000001 .652 .07800001 .64500007 .07800001 .596 L .07800001 .076000008 Z "/>
</symbol>
<symbol id="font_0_c">
<path d="M .08400001 .263 C .09 .41200004 .17400001 .43700005 .20800002 .43700005 C .31100003 .43700005 .321 .30200003 .321 .263 L .08400001 .263 M .083000008 .24200002 L .36200003 .24200002 C .38400004 .24200002 .38700003 .24200002 .38700003 .263 C .38700003 .36200003 .33300004 .45900003 .20800002 .45900003 C .09200001 .45900003 0 .35600005 0 .23100002 C 0 .097 .105000007 0 .22000002 0 C .342 0 .38700003 .111 .38700003 .13000001 C .38700003 .14000002 .379 .14200002 .374 .14200002 C .365 .14200002 .36300005 .136 .36100004 .128 C .326 .025000003 .236 .025000003 .22600001 .025000003 C .17600002 .025000003 .136 .055000005 .113000009 .092 C .083000008 .14000002 .083000008 .20600002 .083000008 .24200002 Z "/>
</symbol>
<symbol id="font_0_d">
<path d="M .14200002 .43100003 L .14200002 .54700008 C .14200002 .63500007 .19 .683 .23400003 .683 C .23700002 .683 .25200004 .683 .26700003 .67600008 C .25500003 .67200008 .23700002 .65900006 .23700002 .634 C .23700002 .611 .25300003 .591 .28000004 .591 C .30900003 .591 .32400004 .611 .32400004 .63500007 C .32400004 .67200008 .28700004 .70500007 .23400003 .70500007 C .164 .70500007 .079 .652 .079 .546 L .079 .43100003 L 0 .43100003 L 0 .4 L .079 .4 L .079 .076000008 C .079 .031000002 .068 .031000002 .001000002 .031000002 L .001000002 0 C .040000008 .001 .087000008 .003 .115 .003 C .155 .003 .20200002 .003 .24200002 0 L .24200002 .031000002 L .22100002 .031000002 C .14700002 .031000002 .14500001 .042000005 .14500001 .078 L .14500001 .4 L .25900004 .4 L .25900004 .43100003 L .14200002 .43100003 Z "/>
</symbol>
<symbol id="font_0_17">
<path d="M .35900004 .09 L .35900004 0 L .503 .011000001 L .503 .042000005 C .43300004 .042000005 .425 .049000004 .425 .098000008 L .425 .45300005 L .278 .44200004 L .278 .411 C .34800003 .411 .356 .404 .356 .35500003 L .356 .17700002 C .356 .09 .308 .022000002 .23500002 .022000002 C .15100001 .022000002 .147 .069000009 .147 .12100001 L .147 .45300005 L 0 .44200004 L 0 .411 C .07800001 .411 .07800001 .40800003 .07800001 .31900005 L .07800001 .16900002 C .07800001 .091000009 .07800001 0 .23000002 0 C .286 0 .33 .028 .35900004 .09 Z "/>
</symbol>
<symbol id="font_0_12">
<path d="M .07800001 .344 L .07800001 .076000008 C .07800001 .031000002 .067 .031000002 0 .031000002 L 0 0 C .035 .001 .08600001 .003 .113000009 .003 C .139 .003 .191 .001 .225 0 L .225 .031000002 C .158 .031000002 .147 .031000002 .147 .076000008 L .147 .26000003 C .147 .36400003 .218 .42000003 .282 .42000003 C .345 .42000003 .356 .36600004 .356 .30900003 L .356 .076000008 C .356 .031000002 .345 .031000002 .278 .031000002 L .278 0 C .31300003 .001 .36400003 .003 .391 .003 C .41700004 .003 .46900005 .001 .503 0 L .503 .031000002 C .451 .031000002 .42600004 .031000002 .425 .061000006 L .425 .252 C .425 .33800004 .425 .36900003 .39400003 .40500004 C .38000003 .42200003 .347 .44200004 .289 .44200004 C .216 .44200004 .169 .39900003 .141 .337 L .141 .44200004 L 0 .43100003 L 0 .4 C .07000001 .4 .07800001 .393 .07800001 .344 Z "/>
</symbol>
<symbol id="font_0_a">
<path d="M .083000008 .22900002 C .083000008 .39200003 .16500002 .43400003 .218 .43400003 C .227 .43400003 .29 .43300004 .32500003 .397 C .284 .39400003 .278 .36400003 .278 .351 C .278 .32500003 .296 .305 .324 .305 C .35 .305 .37 .32200004 .37 .35200004 C .37 .42000003 .294 .45900003 .21700001 .45900003 C .092 .45900003 0 .351 0 .22700002 C 0 .09900001 .099 0 .215 0 C .349 0 .381 .120000008 .381 .13000001 C .381 .14000002 .37100003 .14000002 .368 .14000002 C .359 .14000002 .35700003 .136 .35500003 .13000001 C .326 .037 .261 .025000003 .224 .025000003 C .171 .025000003 .083000008 .068 .083000008 .22900002 Z "/>
</symbol>
<symbol id="font_0_16">
<path d="M .15400002 .411 L .29700003 .411 L .29700003 .44200004 L .15400002 .44200004 L .15400002 .626 L .12900001 .626 C .12799999 .544 .098000008 .43700005 0 .43300004 L 0 .411 L .085 .411 L .085 .135 C .085 .012000001 .178 0 .21400002 0 C .28500004 0 .31300003 .071 .31300003 .135 L .31300003 .19200002 L .28800003 .19200002 L .28800003 .13700001 C .28800003 .063 .25800003 .025000003 .22100002 .025000003 C .15400002 .025000003 .15400002 .116000007 .15400002 .13300002 L .15400002 .411 Z "/>
</symbol>
<symbol id="font_0_10">
<path d="M .144 .44200004 L .0040000008 .43100003 L .0040000008 .4 C .069000009 .4 .07800001 .39400003 .07800001 .34500004 L .07800001 .076000008 C .07800001 .031000002 .067 .031000002 0 .031000002 L 0 0 C .032000007 .001 .086 .003 .11000001 .003 C .14500001 .003 .18 .001 .21400002 0 L .21400002 .031000002 C .148 .031000002 .144 .036000004 .144 .075 L .144 .44200004 M .148 .61600008 C .148 .648 .123 .669 .095000009 .669 C .064 .669 .042000005 .642 .042000005 .61600008 C .042000005 .58900007 .064 .563 .095000009 .563 C .123 .563 .148 .58400008 .148 .61600008 Z "/>
</symbol>
<symbol id="font_0_13">
<path d="M .44300003 .22500003 C .44300003 .35300002 .34300003 .45900003 .222 .45900003 C .097 .45900003 0 .35000003 0 .22500003 C 0 .096 .104 0 .22100002 0 C .342 0 .44300003 .098000008 .44300003 .22500003 M .222 .025000003 C .17900002 .025000003 .135 .046 .10800001 .092 C .083000008 .136 .083000008 .19700001 .083000008 .23300003 C .083000008 .272 .083000008 .32600004 .10700001 .37000004 C .134 .41600005 .18100001 .43700005 .22100002 .43700005 C .26500003 .43700005 .30800004 .41500003 .33400003 .37200005 C .36 .32900004 .36 .27100004 .36 .23300003 C .36 .19700001 .36 .143 .33800004 .09900001 C .316 .054 .272 .025000003 .222 .025000003 Z "/>
</symbol>
<use xlink:href="#font_0_8" transform="matrix(9.9626,0,0,-9.9626,3.6796537,87.214008)"/>
<use xlink:href="#font_0_f" transform="matrix(9.9626,0,0,-9.9626,10.832801,87.214008)"/>
<use xlink:href="#font_0_c" transform="matrix(9.9626,0,0,-9.9626,16.332158,87.32359)"/>
<use xlink:href="#font_0_d" transform="matrix(9.9626,0,0,-9.9626,24.12291,87.214008)"/>
<use xlink:href="#font_0_17" transform="matrix(9.9626,0,0,-9.9626,27.161503,87.32359)"/>
<use xlink:href="#font_0_12" transform="matrix(9.9626,0,0,-9.9626,32.700708,87.214008)"/>
<use xlink:href="#font_0_a" transform="matrix(9.9626,0,0,-9.9626,38.259843,87.32359)"/>
<use xlink:href="#font_0_16" transform="matrix(9.9626,0,0,-9.9626,42.533796,87.32359)"/>
<use xlink:href="#font_0_10" transform="matrix(9.9626,0,0,-9.9626,46.54872,87.214008)"/>
<use xlink:href="#font_0_13" transform="matrix(9.9626,0,0,-9.9626,49.268514,87.32359)"/>
<use xlink:href="#font_0_12" transform="matrix(9.9626,0,0,-9.9626,54.28966,87.214008)"/>
<symbol id="font_1_1">
<path d="M .314 .605 L .4 .605 C .42000003 .605 .43 .605 .43 .625 C .43 .63600006 .42000003 .63600006 .40300004 .63600006 L .32000003 .63600006 L .34100003 .75 C .34500004 .771 .35900004 .842 .365 .8540001 C .374 .873 .39100004 .888 .41200004 .888 C .416 .888 .44200004 .888 .461 .87 C .41700004 .86600008 .407 .8310001 .407 .816 C .407 .793 .425 .781 .444 .781 C .47 .781 .49900005 .8030001 .49900005 .8410001 C .49900005 .8870001 .45300005 .9100001 .41200004 .9100001 C .37800003 .9100001 .31500004 .8920001 .28500004 .793 C .279 .7720001 .27600003 .7620001 .252 .63600006 L .18300002 .63600006 C .164 .63600006 .15300001 .63600006 .15300001 .61700007 C .15300001 .605 .162 .605 .18100001 .605 L .24700001 .605 L .172 .21000001 C .15400002 .113000009 .13700001 .022 .08500001 .022 C .081 .022 .056 .022 .037 .040000008 C .083000008 .043000014 .09200001 .07900001 .09200001 .094000007 C .09200001 .117000009 .074 .12900001 .055 .12900001 C .029 .12900001 0 .10700001 0 .069000009 C 0 .024000004 .044 0 .08500001 0 C .14 0 .18 .059 .19800002 .09700001 C .23000002 .16000001 .25300003 .28100003 .254 .28800003 L .314 .605 Z "/>
</symbol>
<use xlink:href="#font_1_1" transform="matrix(9.9626,0,0,-9.9626,63.34702,89.25634)"/>
<symbol id="font_0_15">
<path d="M .17500001 .20500002 C .197 .20100002 .279 .18500002 .279 .113000009 C .279 .062000004 .24400002 .022000002 .16600001 .022000002 C .082 .022000002 .046000005 .079 .027000003 .16400002 C .024000004 .17700002 .023000002 .18100001 .013000004 .18100001 C 0 .18100001 0 .17400001 0 .15600002 L 0 .024 C 0 .0070000009 0 0 .011000004 0 C .016000003 0 .017 .0010000002 .036000007 .020000002 C .038000004 .022000002 .038000004 .024 .056 .043 C .1 .0010000002 .14500001 0 .16600001 0 C .28100003 0 .32700003 .067 .32700003 .13900002 C .32700003 .19200002 .29700003 .22200002 .28500004 .23400001 C .25200004 .26600004 .213 .27400003 .171 .28200004 C .115 .293 .048 .30600003 .048 .36400003 C .048 .39900003 .07400001 .44000004 .16 .44000004 C .27 .44000004 .27500005 .35000003 .277 .31900005 C .27800004 .31000004 .28700004 .31000004 .28900004 .31000004 C .30200003 .31000004 .30200003 .31500004 .30200003 .33400003 L .30200003 .43500004 C .30200003 .45200003 .30200003 .45900003 .291 .45900003 C .286 .45900003 .284 .45900003 .27100004 .44700004 C .26800005 .44300003 .25800003 .43400003 .254 .43100003 C .21600002 .45900003 .17500001 .45900003 .16 .45900003 C .038000004 .45900003 0 .39200003 0 .33600004 C 0 .30100004 .016000003 .27300004 .043000007 .25100003 C .075 .22500003 .10300001 .21900001 .17500001 .20500002 Z "/>
</symbol>
<symbol id="font_0_14">
<path d="M .13900002 .33200003 L .13900002 .44200004 L 0 .43100003 L 0 .4 C .07000001 .4 .07800001 .393 .07800001 .344 L .07800001 .076000008 C .07800001 .031000002 .067 .031000002 0 .031000002 L 0 0 C .039 .001 .08600001 .003 .11400001 .003 C .15400002 .003 .20100002 .003 .24100003 0 L .24100003 .031000002 L .22000002 .031000002 C .14600002 .031000002 .14400001 .042000005 .14400001 .078 L .14400001 .23200001 C .14400001 .33100004 .18600002 .42000003 .26200003 .42000003 C .26900003 .42000003 .27100004 .42000003 .27300004 .41900004 C .27 .418 .25000004 .40600003 .25000004 .38000003 C .25000004 .35200004 .27100004 .337 .293 .337 C .31100003 .337 .33600004 .349 .33600004 .381 C .33600004 .41300003 .305 .44200004 .26200003 .44200004 C .18900001 .44200004 .15300001 .37500004 .13900002 .33200003 Z "/>
</symbol>
<symbol id="font_0_9">
<path d="M .291 .087000008 C .29500003 .047000003 .32200004 .005000001 .36900003 .005000001 C .39000003 .005000001 .45100004 .019000002 .45100004 .1 L .45100004 .15600002 L .42600004 .15600002 L .42600004 .1 C .42600004 .042000005 .40100003 .036000004 .39000003 .036000004 C .35700003 .036000004 .35300002 .081 .35300002 .086 L .35300002 .286 C .35300002 .328 .35300002 .367 .31700004 .404 C .27800004 .44300003 .22800002 .45900003 .18 .45900003 C .098 .45900003 .029 .41200004 .029 .34600003 C .029 .316 .049000004 .29900003 .075 .29900003 C .10300001 .29900003 .121 .31900005 .121 .34500004 C .121 .35700003 .116000007 .39000003 .07 .39100004 C .09700001 .42600004 .146 .43700005 .178 .43700005 C .22700003 .43700005 .284 .39800004 .284 .30900003 L .284 .272 C .23300001 .26900003 .16300002 .26600004 .1 .23600002 C .024999999 .20200002 0 .15000002 0 .106000009 C 0 .025000003 .09700001 0 .16 0 C .22600001 0 .272 .040000004 .291 .087000008 M .284 .25100003 L .284 .15100001 C .284 .056 .21200001 .022000002 .167 .022000002 C .11800001 .022000002 .077 .057000005 .077 .107 C .077 .16200002 .11900001 .24500002 .284 .25100003 Z "/>
</symbol>
<symbol id="font_0_e">
<path d="M .19400002 .37800003 C .10700001 .37800003 .10700001 .47800005 .10700001 .50100007 C .10700001 .52800008 .10800001 .56 .12300001 .58500006 C .13100001 .59700009 .15400002 .62500008 .19400002 .62500008 C .28100003 .62500008 .28100003 .52500006 .28100003 .50200006 C .28100003 .47500003 .28000004 .44300003 .26500003 .41800005 C .25700004 .40600003 .23400003 .37800003 .19400002 .37800003 M .07800001 .33900003 C .07800001 .34300003 .07800001 .36600004 .095 .38600005 C .134 .35800005 .17500001 .35500003 .19400002 .35500003 C .28700004 .35500003 .356 .42400003 .356 .50100007 C .356 .53800007 .34000004 .57500007 .31500004 .59800007 C .351 .632 .38700003 .637 .40500004 .637 C .40700004 .637 .41200004 .637 .41500003 .63600006 C .404 .632 .39900003 .62100008 .39900003 .609 C .39900003 .592 .41200004 .58000007 .42800004 .58000007 C .43800003 .58000007 .45700003 .587 .45700003 .61 C .45700003 .62700006 .44500003 .65900006 .40600003 .65900006 C .38600005 .65900006 .342 .65300008 .3 .61200007 C .25800003 .64500007 .21600002 .64800009 .19400002 .64800009 C .10100001 .64800009 .032 .57900008 .032 .50200006 C .032 .458 .054 .42000003 .07900001 .39900003 C .066 .384 .048000006 .351 .048000006 .316 C .048000006 .28500004 .061 .24700001 .09200001 .22700002 C .032 .21000001 0 .16700001 0 .127 C 0 .055000009 .09900001 0 .22100002 0 C .33900003 0 .44300003 .051000015 .44300003 .12900001 C .44300003 .164 .42900003 .21500002 .37800003 .24300002 C .32500003 .27100004 .26700003 .27100004 .20600002 .27100004 C .18100001 .27100004 .13800001 .27100004 .13100001 .272 C .09900001 .27600003 .07800001 .307 .07800001 .33900003 M .222 .023000002 C .12100001 .023000002 .052000006 .074000019 .052000006 .127 C .052000006 .17300001 .09 .21000001 .134 .21300002 L .19300002 .21300002 C .279 .21300002 .39100004 .21300002 .39100004 .127 C .39100004 .073000017 .32000003 .023000002 .222 .023000002 Z "/>
</symbol>
<symbol id="font_0_3">
<path d="M .117000009 .194 C .117000009 .25800003 .093 .29900003 .05300001 .29900003 C .018 .29900003 0 .272 0 .246 C 0 .22 .017000005 .193 .05300001 .193 C .069 .193 .08100001 .199 .091 .207 L .093 .209 C .094000007 .209 .095000009 .208 .095000009 .194 C .095000009 .13 .06700001 .069 .023000002 .022 C .017000005 .016000003 .016000003 .015000001 .016000003 .0109999929 C .016000003 .003999993 .021000006 0 .026 0 C .038000004 0 .117000009 .078999999 .117000009 .194 Z "/>
</symbol>
<symbol id="font_0_19">
<path d="M .601 .34700004 C .619 .397 .65000006 .41000004 .685 .411 L .685 .44200004 C .66300007 .44000004 .634 .43900005 .61200007 .43900005 C .583 .43900005 .53800007 .441 .519 .44200004 L .519 .411 C .555 .41000004 .577 .39200003 .577 .36300005 C .577 .35700003 .577 .35500003 .572 .34200005 L .481 .086 L .382 .365 C .37800003 .37700004 .377 .37900005 .377 .38400004 C .377 .411 .416 .411 .43600003 .411 L .43600003 .44200004 C .407 .441 .356 .43900005 .33200003 .43900005 C .30200003 .43900005 .273 .44000004 .243 .44200004 L .243 .411 C .28 .411 .296 .40900005 .306 .39600004 C .31100003 .39000003 .322 .36 .329 .34100003 L .243 .09900001 L .148 .36600004 C .143 .37800003 .143 .38000003 .143 .38400004 C .143 .411 .182 .411 .202 .411 L .202 .44200004 C .172 .441 .116000007 .43900005 .09300001 .43900005 C .08900001 .43900005 .036 .44000004 0 .44200004 L 0 .411 C .050000006 .411 .062000008 .40800003 .07400001 .37600003 L .2 .022000002 C .205 .008000001 .208 0 .221 0 C .234 0 .236 .0060000007 .241 .020000002 L .342 .30300004 L .444 .019000002 C .448 .008000001 .451 0 .46400003 0 C .47700004 0 .48000003 .009000001 .48400004 .019000002 L .601 .34700004 Z "/>
</symbol>
<symbol id="font_0_11">
<path d="M .144 .694 L 0 .683 L 0 .652 C .07000001 .652 .07800001 .64500007 .07800001 .596 L .07800001 .076000008 C .07800001 .031000002 .067 .031000002 0 .031000002 L 0 0 C .033 .001 .086 .003 .11100001 .003 C .136 .003 .185 .001 .22200004 0 L .22200004 .031000002 C .155 .031000002 .144 .031000002 .144 .076000008 L .144 .694 Z "/>
</symbol>
<symbol id="font_0_b">
<path d="M .34600003 .06600001 L .34600003 0 L .493 .011000001 L .493 .042000005 C .423 .042000005 .41500003 .049000004 .41500003 .098000008 L .41500003 .705 L .271 .694 L .271 .663 C .34100003 .663 .349 .656 .349 .607 L .349 .39100004 C .32 .42700003 .277 .45300005 .22299999 .45300005 C .10500001 .45300005 0 .35500003 0 .22600001 C 0 .09900001 .098 0 .21200001 0 C .276 0 .321 .034 .34600003 .06600001 M .34600003 .33400003 L .34600003 .12900001 C .34600003 .111 .34600003 .109000008 .335 .092 C .305 .044 .26 .022000002 .21700001 .022000002 C .17200002 .022000002 .136 .048 .11200001 .086 C .086 .127 .083000008 .18400002 .083000008 .22500003 C .083000008 .26200003 .085 .32200004 .114 .367 C .13500002 .39800004 .17300001 .43100003 .227 .43100003 C .262 .43100003 .30400003 .41600005 .335 .37100003 C .34600003 .35400004 .34600003 .35200004 .34600003 .33400003 Z "/>
</symbol>
<symbol id="font_0_4">
<path d="M .26500003 0 L .26500003 .058 L 0 .058 L 0 0 L .26500003 0 Z "/>
</symbol>
<symbol id="font_0_5">
<path d="M .106 .053000004 C .106 .082 .08200001 .106000009 .05300001 .106000009 C .024000004 .106000009 0 .082 0 .053000004 C 0 .024 .024000004 0 .05300001 0 C .08200001 0 .106 .024 .106 .053000004 Z "/>
</symbol>
<symbol id="font_0_7">
<path d="M .19700001 .605 C .19700001 .64100006 .20000002 .652 .279 .652 L .305 .652 L .305 .683 C .27 .68 .19100002 .68 .15300001 .68 C .11400001 .68 .035 .68 0 .683 L 0 .652 L .026 .652 C .105000007 .652 .10800001 .64100006 .10800001 .605 L .10800001 .078 C .10800001 .042000005 .105000007 .031000002 .026 .031000002 L 0 .031000002 L 0 0 C .035 .003 .11400001 .003 .15200001 .003 C .19100002 .003 .27 .003 .305 0 L .305 .031000002 L .279 .031000002 C .20000002 .031000002 .19700001 .042000005 .19700001 .078 L .19700001 .605 Z "/>
</symbol>
<symbol id="font_0_18">
<path d="M .397 .344 C .40600003 .367 .42300005 .41000004 .48900003 .411 L .48900003 .44200004 C .46600003 .44000004 .43700005 .43900005 .41400004 .43900005 C .39000003 .43900005 .344 .441 .32700003 .44200004 L .32700003 .411 C .36400003 .41000004 .37500004 .38700003 .37500004 .36800004 C .37500004 .35900004 .37300004 .35500003 .36900003 .344 L .26700003 .089 L .155 .36800004 C .14900002 .381 .14900002 .38300003 .14900002 .38500003 C .14900002 .411 .18800003 .411 .206 .411 L .206 .44200004 C .176 .441 .12000001 .43900005 .097 .43900005 C .07 .43900005 .030000002 .44000004 0 .44200004 L 0 .411 C .063 .411 .067 .40500004 .080000009 .374 L .224 .019000002 C .23000002 .005000001 .23200003 0 .245 0 C .25800003 0 .26200003 .009000001 .26600004 .019000002 L .397 .344 Z "/>
</symbol>
<use xlink:href="#font_0_10" transform="matrix(9.9626,0,0,-9.9626,72.41876,87.214008)"/>
<use xlink:href="#font_0_15" transform="matrix(9.9626,0,0,-9.9626,75.18836,87.32359)"/>
<use xlink:href="#font_0_10" transform="matrix(9.9626,0,0,-9.9626,82.43117,87.214008)"/>
<use xlink:href="#font_0_12" transform="matrix(9.9626,0,0,-9.9626,85.1908,87.214008)"/>
<use xlink:href="#font_0_a" transform="matrix(9.9626,0,0,-9.9626,90.74994,87.32359)"/>
<use xlink:href="#font_0_14" transform="matrix(9.9626,0,0,-9.9626,95.113559,87.214008)"/>
<use xlink:href="#font_0_c" transform="matrix(9.9626,0,0,-9.9626,99.0189,87.32359)"/>
<use xlink:href="#font_0_9" transform="matrix(9.9626,0,0,-9.9626,103.581768,87.32359)"/>
<use xlink:href="#font_0_15" transform="matrix(9.9626,0,0,-9.9626,108.473407,87.32359)"/>
<use xlink:href="#font_0_10" transform="matrix(9.9626,0,0,-9.9626,112.39867,87.214008)"/>
<use xlink:href="#font_0_12" transform="matrix(9.9626,0,0,-9.9626,115.1583,87.214008)"/>
<use xlink:href="#font_0_e" transform="matrix(9.9626,0,0,-9.9626,120.65766,89.2663)"/>
<use xlink:href="#font_0_3" transform="matrix(9.9626,0,0,-9.9626,126.21679,89.13679)"/>
<use xlink:href="#font_0_19" transform="matrix(9.9626,0,0,-9.9626,3.500326,99.278598)"/>
<use xlink:href="#font_0_f" transform="matrix(9.9626,0,0,-9.9626,10.832799,99.16901)"/>
<use xlink:href="#font_0_10" transform="matrix(9.9626,0,0,-9.9626,16.381968,99.16901)"/>
<use xlink:href="#font_0_11" transform="matrix(9.9626,0,0,-9.9626,19.151572,99.16901)"/>
<use xlink:href="#font_0_c" transform="matrix(9.9626,0,0,-9.9626,21.871363,99.278598)"/>
<use xlink:href="#font_0_16" transform="matrix(9.9626,0,0,-9.9626,29.52264,99.278598)"/>
<use xlink:href="#font_0_f" transform="matrix(9.9626,0,0,-9.9626,33.527605,99.16901)"/>
<use xlink:href="#font_0_c" transform="matrix(9.9626,0,0,-9.9626,39.026964,99.278598)"/>
<use xlink:href="#font_0_14" transform="matrix(9.9626,0,0,-9.9626,46.777864,99.16901)"/>
<use xlink:href="#font_0_9" transform="matrix(9.9626,0,0,-9.9626,50.822679,99.278598)"/>
<use xlink:href="#font_0_16" transform="matrix(9.9626,0,0,-9.9626,55.574838,99.278598)"/>
<use xlink:href="#font_0_c" transform="matrix(9.9626,0,0,-9.9626,59.53995,99.278598)"/>
<use xlink:href="#font_0_10" transform="matrix(9.9626,0,0,-9.9626,67.3307,99.16901)"/>
<use xlink:href="#font_0_16" transform="matrix(9.9626,0,0,-9.9626,69.96083,99.278598)"/>
<use xlink:href="#font_0_15" transform="matrix(9.9626,0,0,-9.9626,73.97575,99.278598)"/>
<use xlink:href="#font_0_c" transform="matrix(9.9626,0,0,-9.9626,77.851207,99.278598)"/>
<use xlink:href="#font_0_11" transform="matrix(9.9626,0,0,-9.9626,82.32441,99.16901)"/>
<use xlink:href="#font_0_d" transform="matrix(9.9626,0,0,-9.9626,85.09401,99.16901)"/>
<use xlink:href="#font_0_10" transform="matrix(9.9626,0,0,-9.9626,91.460109,99.16901)"/>
<use xlink:href="#font_0_15" transform="matrix(9.9626,0,0,-9.9626,94.229709,99.278598)"/>
<use xlink:href="#font_0_b" transform="matrix(9.9626,0,0,-9.9626,101.482479,99.278598)"/>
<use xlink:href="#font_0_c" transform="matrix(9.9626,0,0,-9.9626,106.96191,99.278598)"/>
<use xlink:href="#font_0_a" transform="matrix(9.9626,0,0,-9.9626,111.445079,99.278598)"/>
<use xlink:href="#font_0_14" transform="matrix(9.9626,0,0,-9.9626,115.81866,99.16901)"/>
<use xlink:href="#font_0_c" transform="matrix(9.9626,0,0,-9.9626,119.714038,99.278598)"/>
<use xlink:href="#font_0_9" transform="matrix(9.9626,0,0,-9.9626,124.286869,99.278598)"/>
<use xlink:href="#font_0_15" transform="matrix(9.9626,0,0,-9.9626,129.1785,99.278598)"/>
<use xlink:href="#font_0_4" transform="matrix(9.9626,0,0,-9.9626,132.88459,97.306)"/>
<use xlink:href="#font_0_10" transform="matrix(9.9626,0,0,-9.9626,3.649765,111.12501)"/>
<use xlink:href="#font_0_12" transform="matrix(9.9626,0,0,-9.9626,6.409405,111.12501)"/>
<use xlink:href="#font_0_e" transform="matrix(9.9626,0,0,-9.9626,11.908761,113.17731)"/>
<use xlink:href="#font_0_5" transform="matrix(9.9626,0,0,-9.9626,17.467892,111.12501)"/>
<use xlink:href="#font_0_7" transform="matrix(9.9626,0,0,-9.9626,24.640967,111.12501)"/>
<use xlink:href="#font_0_12" transform="matrix(9.9626,0,0,-9.9626,28.277316,111.12501)"/>
<use xlink:href="#font_0_16" transform="matrix(9.9626,0,0,-9.9626,37.004556,111.2346)"/>
<use xlink:href="#font_0_f" transform="matrix(9.9626,0,0,-9.9626,41.009519,111.12501)"/>
<use xlink:href="#font_0_10" transform="matrix(9.9626,0,0,-9.9626,46.55869,111.12501)"/>
<use xlink:href="#font_0_15" transform="matrix(9.9626,0,0,-9.9626,49.328294,111.2346)"/>
<use xlink:href="#font_0_a" transform="matrix(9.9626,0,0,-9.9626,56.58107,111.2346)"/>
<use xlink:href="#font_0_9" transform="matrix(9.9626,0,0,-9.9626,61.084165,111.2346)"/>
<use xlink:href="#font_0_15" transform="matrix(9.9626,0,0,-9.9626,65.9758,111.2346)"/>
<use xlink:href="#font_0_c" transform="matrix(9.9626,0,0,-9.9626,69.86121,111.2346)"/>
<use xlink:href="#font_0_16" transform="matrix(9.9626,0,0,-9.9626,77.51249,111.2346)"/>
<use xlink:href="#font_0_f" transform="matrix(9.9626,0,0,-9.9626,81.51745,111.12501)"/>
<use xlink:href="#font_0_c" transform="matrix(9.9626,0,0,-9.9626,87.01681,111.2346)"/>
<use xlink:href="#font_0_a" transform="matrix(9.9626,0,0,-9.9626,94.81752,111.2346)"/>
<use xlink:href="#font_0_17" transform="matrix(9.9626,0,0,-9.9626,99.220989,111.2346)"/>
<use xlink:href="#font_0_14" transform="matrix(9.9626,0,0,-9.9626,104.720348,111.12501)"/>
<use xlink:href="#font_0_18" transform="matrix(9.9626,0,0,-9.9626,108.536029,111.2346)"/>
<use xlink:href="#font_0_c" transform="matrix(9.9626,0,0,-9.9626,113.60699,111.2346)"/>
<symbol id="font_1_4">
<path d="M .45700003 .586 C .461 .6 .461 .602 .461 .609 C .461 .62700006 .447 .63600006 .432 .63600006 C .42200003 .63600006 .40600003 .63 .397 .615 C .395 .61 .387 .579 .38300003 .561 C .37600003 .535 .36900003 .508 .363 .48100005 L .318 .301 C .314 .286 .271 .21600002 .20500002 .21600002 C .15400002 .21600002 .143 .26000003 .143 .29700003 C .143 .34300003 .16000001 .40500004 .194 .49300004 C .21000001 .53400006 .21400002 .545 .21400002 .56500008 C .21400002 .61 .18200001 .6470001 .13200002 .6470001 C .037 .6470001 0 .50200006 0 .49300004 C 0 .48300005 .01 .48300005 .012 .48300005 C .022000002 .48300005 .023 .485 .028000003 .50100007 C .055000009 .595 .095000009 .625 .12900001 .625 C .13700001 .625 .15400002 .625 .15400002 .59300008 C .15400002 .568 .14400001 .54200008 .13700001 .523 C .097 .41700004 .079 .36 .079 .31300003 C .079 .224 .142 .194 .201 .194 C .24000003 .194 .274 .21100001 .30200003 .23900002 C .289 .187 .277 .13800001 .237 .08500001 C .21100001 .051 .17300001 .022 .127 .022 C .113000009 .022 .068 .025000006 .051000008 .06400001 C .067 .06400001 .080000009 .06400001 .094000007 .076000008 C .104 .08500001 .11400001 .098000008 .11400001 .117000009 C .11400001 .148 .087000008 .15200001 .07700001 .15200001 C .054000006 .15200001 .021 .136 .021 .087000008 C .021 .037 .065000008 0 .127 0 C .23 0 .333 .091000009 .361 .20400001 L .45700003 .586 Z "/>
</symbol>
<use xlink:href="#font_1_4" transform="matrix(9.9626,0,0,-9.9626,3.6099146,125.122348)"/>
<symbol id="font_0_6">
<path d="M .63100007 .19400002 C .646 .19400002 .665 .19400002 .665 .214 C .665 .23400001 .646 .23400001 .632 .23400001 L .033 .23400001 C .019000002 .23400001 0 .23400001 0 .214 C 0 .19400002 .019000002 .19400002 .034 .19400002 L .63100007 .19400002 M .632 0 C .646 0 .665 0 .665 .02000001 C .665 .040000008 .646 .040000008 .63100007 .040000008 L .034 .040000008 C .019000002 .040000008 0 .040000008 0 .02000001 C 0 0 .019000002 0 .033 0 L .632 0 Z "/>
</symbol>
<use xlink:href="#font_0_6" transform="matrix(9.9626,0,0,-9.9626,11.887904,121.75498)"/>
<use xlink:href="#font_1_1" transform="matrix(9.9626,0,0,-9.9626,22.374016,125.122348)"/>
<symbol id="font_0_1">
<path d="M .23200003 .00999999 C .23200003 .012999982 .23200003 .014999986 .215 .03199999 C .09 .15799999 .058 .347 .058 .5 C .058 .674 .096 .84800007 .21900001 .97300007 C .23200003 .985 .23200003 .98700007 .23200003 .99 C .23200003 .99700006 .22800002 1 .222 1 C .21200001 1 .12200001 .93200007 .06299999 .805 C .012000002 .69500008 0 .584 0 .5 C 0 .422 .011 .301 .066 .188 C .126 .065 .21200001 0 .222 0 C .22800002 0 .23200003 .0029999912 .23200003 .00999999 Z "/>
</symbol>
<use xlink:href="#font_0_1" transform="matrix(9.9626,0,0,-9.9626,28.782296,125.570659)"/>
<symbol id="font_1_3">
<path d="M .305 .31300003 C .311 .33900003 .334 .43100003 .404 .43100003 C .409 .43100003 .433 .43100003 .454 .418 C .426 .41300003 .40600003 .388 .40600003 .36400003 C .40600003 .34800003 .417 .32900004 .444 .32900004 C .46600003 .32900004 .498 .34700004 .498 .38700003 C .498 .43900005 .439 .45300005 .405 .45300005 C .347 .45300005 .312 .40000005 .3 .37700004 C .275 .44300003 .221 .45300005 .19200002 .45300005 C .08800001 .45300005 .031000002 .32400004 .031000002 .29900003 C .031000002 .28900004 .041 .28900004 .043000007 .28900004 C .051000008 .28900004 .054000006 .291 .056 .3 C .09 .40600003 .156 .43100003 .19000001 .43100003 C .209 .43100003 .244 .42200003 .244 .36400003 C .244 .33300004 .22700002 .26600004 .19000001 .126 C .17400001 .064 .13900002 .022000002 .095000009 .022000002 C .08900001 .022000002 .06600001 .022000002 .045 .035 C .07000001 .040000004 .09200001 .061 .09200001 .089 C .09200001 .116000007 .07000001 .124000009 .055000009 .124000009 C .025 .124000009 0 .098000008 0 .06600001 C 0 .020000002 .050000006 0 .094000007 0 C .16000001 0 .19600001 .07000001 .19900002 .076000008 C .21100001 .039 .24700003 0 .307 0 C .41 0 .467 .12900001 .467 .15400002 C .467 .16400002 .458 .16400002 .455 .16400002 C .446 .16400002 .444 .16000001 .442 .15300001 C .409 .046 .341 .022000002 .30900003 .022000002 C .27 .022000002 .254 .054 .254 .08800001 C .254 .11000001 .26 .13200002 .271 .17600002 L .305 .31300003 Z "/>
</symbol>
<use xlink:href="#font_1_3" transform="matrix(9.9626,0,0,-9.9626,31.958914,123.1896)"/>
<symbol id="font_0_2">
<path d="M .232 .5 C .232 .578 .22100002 .699 .16600001 .81200006 C .106 .93500009 .020000004 1 .009999998 1 C .0040000008 1 0 .99600008 0 .99 C 0 .98700007 0 .985 .019000002 .967 C .117000009 .86800006 .174 .709 .174 .5 C .174 .329 .137 .153 .012999997 .026999996 C 0 .014999986 0 .012999982 0 .00999999 C 0 .003999993 .0040000008 0 .009999998 0 C .020000004 0 .11000001 .06799999 .169 .195 C .22 .305 .232 .416 .232 .5 Z "/>
</symbol>
<use xlink:href="#font_0_2" transform="matrix(9.9626,0,0,-9.9626,37.931867,125.570659)"/>
<use xlink:href="#font_0_10" transform="matrix(9.9626,0,0,-9.9626,41.568216,123.08001)"/>
<use xlink:href="#font_0_15" transform="matrix(9.9626,0,0,-9.9626,44.33782,123.1896)"/>
<symbol id="font_2_2">
<path d="M .32200004 .41300003 C .30400003 .39700005 .302 .37600003 .302 .36700005 C .302 .323 .337 .30400003 .36400003 .30400003 C .39500005 .30400003 .42700006 .32500003 .42700006 .36700005 C .42700006 .45300005 .311 .45900003 .25300003 .45900003 C .074 .45900003 0 .34400005 0 .22800002 C 0 .095 .094 0 .24800001 0 C .41000004 0 .44 .116000007 .44 .123 C .44 .13700001 .426 .13700001 .416 .13700001 C .398 .13700001 .397 .135 .39200003 .122 C .366 .059000005 .31800003 .040000004 .26700003 .040000004 C .128 .040000004 .128 .187 .128 .23300001 C .128 .28900004 .128 .41900004 .25700004 .41900004 C .292 .41900004 .30900003 .41600005 .32200004 .41300003 Z "/>
</symbol>
<symbol id="font_2_6">
<path d="M .51000007 .224 C .51000007 .35800005 .418 .45900003 .255 .45900003 C .091000009 .45900003 0 .35700003 0 .224 C 0 .1 .088 0 .255 0 C .423 0 .51000007 .101 .51000007 .224 M .255 .040000004 C .128 .040000004 .128 .148 .128 .23500002 C .128 .28000004 .128 .33100004 .145 .36500005 C .164 .40200005 .206 .42300005 .255 .42300005 C .29700003 .42300005 .33900003 .40700004 .361 .37200005 C .38200004 .33800004 .38200004 .28300003 .38200004 .23500002 C .38200004 .148 .38200004 .040000004 .255 .040000004 Z "/>
</symbol>
<symbol id="font_2_5">
<path d="M .069000009 .356 L .069000009 .047000003 L 0 .047000003 L 0 0 C .028000005 .001 .088 .003 .126 .003 C .165 .003 .22400002 .001 .25200004 0 L .25200004 .047000003 L .18300002 .047000003 L .18300002 .256 C .18300002 .365 .269 .41400004 .33200003 .41400004 C .366 .41400004 .38700003 .393 .38700003 .317 L .38700003 .047000003 L .31800003 .047000003 L .31800003 0 C .34600003 .001 .40600003 .003 .444 .003 C .48299999 .003 .542 .001 .57 0 L .57 .047000003 L .501 .047000003 L .501 .30600003 C .501 .411 .44700004 .45000003 .347 .45000003 C .251 .45000003 .19800002 .393 .172 .342 L .172 .45000003 L 0 .44200004 L 0 .395 C .062000008 .395 .069000009 .395 .069000009 .356 Z "/>
</symbol>
<symbol id="font_2_1">
<path d="M .342 .083000008 C .342 .052000006 .342 .006 .446 .006 L .49400003 .006 C .514 .006 .526 .006 .526 .030000002 C .526 .053000004 .513 .053000004 .5 .053000004 C .439 .054 .439 .067 .439 .09 L .439 .30500005 C .439 .39400003 .368 .45900003 .21900001 .45900003 C .162 .45900003 .040000004 .45500005 .040000004 .36700005 C .040000004 .323 .075 .30400003 .102 .30400003 C .133 .30400003 .165 .32500003 .165 .36700005 C .165 .39700005 .146 .41400004 .143 .41600005 C .171 .42200003 .20300001 .42300005 .215 .42300005 C .29000003 .42300005 .32500003 .38100005 .32500003 .30500005 L .32500003 .27100004 C .254 .26800005 0 .25900004 0 .114 C 0 .018 .124 0 .193 0 C .273 0 .32000003 .041 .342 .083000008 M .32500003 .24000001 L .32500003 .14500001 C .32500003 .049000004 .23300001 .036000004 .208 .036000004 C .157 .036000004 .117 .071 .117 .115 C .117 .223 .275 .237 .32500003 .24000001 Z "/>
</symbol>
<symbol id="font_2_9">
<path d="M .48000006 .38000003 C .48600004 .39400003 .49000005 .40100003 .554 .40100003 L .554 .44800005 C .529 .44600005 .5 .44500003 .47500006 .44500003 C .45000003 .44500003 .40500004 .44700004 .38400004 .44800005 L .38400004 .40100003 C .40300004 .40100003 .43200005 .39800004 .43200005 .39000003 C .43200005 .38900004 .43100003 .38700003 .42700003 .37800003 L .31100003 .128 L .18400002 .40100003 L .238 .40100003 L .238 .44800005 C .20500002 .44600005 .115 .44500003 .114 .44500003 C .086 .44500003 .041 .44700004 0 .44800005 L 0 .40100003 L .064 .40100003 L .23900002 .025000003 C .25100003 0 .26400004 0 .277 0 C .29400004 0 .30400003 .003 .314 .024000003 L .48000006 .38000003 Z "/>
</symbol>
<symbol id="font_2_4">
<path d="M .43 .224 C .45200003 .224 .462 .224 .462 .25100003 C .462 .28200004 .45600004 .35500003 .40600003 .40500004 C .36900003 .44100005 .316 .45900003 .24700001 .45900003 C .087 .45900003 0 .35600005 0 .231 C 0 .097 .099999997 0 .261 0 C .41900004 0 .462 .106 .462 .123 C .462 .141 .44300003 .141 .43800003 .141 C .421 .141 .41900004 .136 .41300003 .120000008 C .39200003 .072 .335 .040000004 .27 .040000004 C .12900001 .040000004 .128 .17300001 .128 .224 L .43 .224 M .128 .25700004 C .13 .29600004 .131 .33800004 .15200001 .37100003 C .178 .41100005 .218 .42300005 .24700001 .42300005 C .36400003 .42300005 .36600004 .29200004 .367 .25700004 L .128 .25700004 Z "/>
</symbol>
<symbol id="font_2_3">
<path d="M .38 .049000004 L .38 0 L .563 .006 L .563 .053000004 C .50100007 .053000004 .49400003 .053000004 .49400003 .092 L .49400003 .7 L .31700004 .69200006 L .31700004 .64500007 C .379 .64500007 .38600005 .64500007 .38600005 .606 L .38600005 .41100005 C .33600004 .45000006 .28400005 .45600004 .251 .45600004 C .105000007 .45600004 0 .36800004 0 .22700002 C 0 .095 .09200001 0 .24000003 0 C .301 0 .34900005 .024 .38 .049000004 M .38 .35900004 L .38 .109000008 C .36700005 .091 .32600004 .036000004 .25 .036000004 C .128 .036000004 .128 .157 .128 .22700002 C .128 .27500005 .128 .32900004 .154 .36800004 C .18300002 .41000004 .23 .42000006 .26100005 .42000006 C .31800003 .42000006 .35800005 .38800005 .38 .35900004 Z "/>
</symbol>
<symbol id="font_2_a">
<path d="M .7120001 .38000003 C .71700009 .39300005 .7210001 .40100003 .7800001 .40100003 L .7800001 .44800005 C .7570001 .44600005 .72700008 .44500003 .70300009 .44500003 C .67600008 .44500003 .62900009 .44700004 .60700008 .44800005 L .60700008 .40100003 C .61600008 .40100003 .6650001 .40000005 .6650001 .38900004 C .6650001 .38600005 .66200008 .38000003 .6610001 .37700004 L .55600008 .12100001 L .442 .40100003 L .498 .40100003 L .498 .44800005 C .46600003 .44700004 .414 .44500003 .384 .44500003 C .342 .44500003 .3 .44700004 .284 .44800005 L .284 .40100003 L .34300003 .40100003 C .36400003 .351 .36400003 .34900005 .36400003 .34800003 C .36400003 .344 .361 .33800004 .36 .33500005 L .28100003 .143 L .176 .40100003 L .232 .40100003 L .232 .44800005 C .191 .44600005 .15 .44500003 .109000008 .44500003 C .07800001 .44500003 .034 .44700004 0 .44800005 L 0 .40100003 L .059000009 .40100003 L .21200001 .027000003 C .21900001 .01 .223 0 .248 0 C .273 0 .277 .01 .284 .027000003 L .39000003 .286 L .49600003 .027000003 C .503 .01 .507 0 .53200009 0 C .55700007 0 .56100007 .01 .5680001 .027000003 L .7120001 .38000003 Z "/>
</symbol>
<use xlink:href="#font_2_2" transform="matrix(9.9626,0,0,-9.9626,51.634576,123.139789)"/>
<use xlink:href="#font_2_6" transform="matrix(9.9626,0,0,-9.9626,56.665689,123.139789)"/>
<use xlink:href="#font_2_5" transform="matrix(9.9626,0,0,-9.9626,62.5237,123.08001)"/>
<use xlink:href="#font_2_2" transform="matrix(9.9626,0,0,-9.9626,68.82006,123.139789)"/>
<use xlink:href="#font_2_1" transform="matrix(9.9626,0,0,-9.9626,73.85117,123.139789)"/>
<use xlink:href="#font_2_9" transform="matrix(9.9626,0,0,-9.9626,79.04169,123.11986)"/>
<use xlink:href="#font_2_4" transform="matrix(9.9626,0,0,-9.9626,84.829959,123.139789)"/>
<use xlink:href="#font_2_3" transform="matrix(9.9626,0,0,-9.9626,93.457569,123.139789)"/>
<use xlink:href="#font_2_6" transform="matrix(9.9626,0,0,-9.9626,99.76389,123.139789)"/>
<use xlink:href="#font_2_a" transform="matrix(9.9626,0,0,-9.9626,105.11381,123.11986)"/>
<use xlink:href="#font_2_5" transform="matrix(9.9626,0,0,-9.9626,113.58202,123.08001)"/>
<use xlink:href="#font_0_5" transform="matrix(9.9626,0,0,-9.9626,120.355777,123.08001)"/>
<use xlink:href="#font_0_8" transform="matrix(9.9626,0,0,-9.9626,173.75766,87.214008)"/>
<use xlink:href="#font_0_f" transform="matrix(9.9626,0,0,-9.9626,180.9108,87.214008)"/>
<use xlink:href="#font_0_c" transform="matrix(9.9626,0,0,-9.9626,186.41014,87.32359)"/>
<use xlink:href="#font_0_d" transform="matrix(9.9626,0,0,-9.9626,194.20092,87.214008)"/>
<use xlink:href="#font_0_17" transform="matrix(9.9626,0,0,-9.9626,197.2395,87.32359)"/>
<use xlink:href="#font_0_12" transform="matrix(9.9626,0,0,-9.9626,202.7787,87.214008)"/>
<use xlink:href="#font_0_a" transform="matrix(9.9626,0,0,-9.9626,208.33783,87.32359)"/>
<use xlink:href="#font_0_16" transform="matrix(9.9626,0,0,-9.9626,212.61179,87.32359)"/>
<use xlink:href="#font_0_10" transform="matrix(9.9626,0,0,-9.9626,216.62673,87.214008)"/>
<use xlink:href="#font_0_13" transform="matrix(9.9626,0,0,-9.9626,219.34651,87.32359)"/>
<use xlink:href="#font_0_12" transform="matrix(9.9626,0,0,-9.9626,224.36766,87.214008)"/>
<symbol id="font_1_2">
<path d="M .45600004 .582 C .45700003 .58800008 .45900006 .59300008 .45900006 .6 C .45900006 .61700007 .44700004 .62700006 .43 .62700006 C .42000003 .62700006 .393 .62 .389 .584 C .371 .62100008 .33600004 .6470001 .296 .6470001 C .18200001 .6470001 .058000007 .507 .058000007 .36300005 C .058000007 .26400004 .119 .20500002 .19100002 .20500002 C .25 .20500002 .297 .252 .30700005 .263 L .30800004 .26200003 C .287 .17300001 .27500005 .132 .27500005 .13000001 C .27100004 .12100001 .237 .022 .13100001 .022 C .112 .022 .079 .023000002 .051 .032000007 C .081 .04100001 .09200001 .067 .09200001 .08400001 C .09200001 .10000001 .081 .11900001 .054000006 .11900001 C .032 .11900001 0 .10100001 0 .061000006 C 0 .02000001 .037 0 .133 0 C .25800003 0 .33000005 .07800001 .34500004 .13800001 L .45600004 .582 M .32600004 .333 C .32 .307 .297 .282 .27500005 .263 C .254 .24500002 .223 .22700002 .194 .22700002 C .14400001 .22700002 .12900001 .279 .12900001 .319 C .12900001 .367 .158 .485 .185 .536 C .21200001 .58500006 .255 .625 .297 .625 C .36300005 .625 .37700004 .544 .37700004 .53900006 C .37700004 .53400006 .375 .528 .374 .52400007 L .32600004 .333 Z "/>
</symbol>
<use xlink:href="#font_1_2" transform="matrix(9.9626,0,0,-9.9626,233.04746,89.25634)"/>
<use xlink:href="#font_0_10" transform="matrix(9.9626,0,0,-9.9626,241.65677,87.214008)"/>
<use xlink:href="#font_0_15" transform="matrix(9.9626,0,0,-9.9626,244.42638,87.32359)"/>
<use xlink:href="#font_0_10" transform="matrix(9.9626,0,0,-9.9626,251.66919,87.214008)"/>
<use xlink:href="#font_0_12" transform="matrix(9.9626,0,0,-9.9626,254.42884,87.214008)"/>
<use xlink:href="#font_0_a" transform="matrix(9.9626,0,0,-9.9626,259.98796,87.32359)"/>
<use xlink:href="#font_0_14" transform="matrix(9.9626,0,0,-9.9626,264.3516,87.214008)"/>
<use xlink:href="#font_0_c" transform="matrix(9.9626,0,0,-9.9626,268.25694,87.32359)"/>
<use xlink:href="#font_0_9" transform="matrix(9.9626,0,0,-9.9626,272.8198,87.32359)"/>
<use xlink:href="#font_0_15" transform="matrix(9.9626,0,0,-9.9626,277.71144,87.32359)"/>
<use xlink:href="#font_0_10" transform="matrix(9.9626,0,0,-9.9626,281.6367,87.214008)"/>
<use xlink:href="#font_0_12" transform="matrix(9.9626,0,0,-9.9626,284.39634,87.214008)"/>
<use xlink:href="#font_0_e" transform="matrix(9.9626,0,0,-9.9626,289.8957,89.2663)"/>
<use xlink:href="#font_0_3" transform="matrix(9.9626,0,0,-9.9626,295.4548,89.13679)"/>
<use xlink:href="#font_0_19" transform="matrix(9.9626,0,0,-9.9626,173.57833,99.278598)"/>
<use xlink:href="#font_0_f" transform="matrix(9.9626,0,0,-9.9626,180.9108,99.16901)"/>
<use xlink:href="#font_0_10" transform="matrix(9.9626,0,0,-9.9626,186.45996,99.16901)"/>
<use xlink:href="#font_0_11" transform="matrix(9.9626,0,0,-9.9626,189.22957,99.16901)"/>
<use xlink:href="#font_0_c" transform="matrix(9.9626,0,0,-9.9626,191.94936,99.278598)"/>
<use xlink:href="#font_0_16" transform="matrix(9.9626,0,0,-9.9626,199.60065,99.278598)"/>
<use xlink:href="#font_0_f" transform="matrix(9.9626,0,0,-9.9626,203.60562,99.16901)"/>
<use xlink:href="#font_0_c" transform="matrix(9.9626,0,0,-9.9626,209.10497,99.278598)"/>
<use xlink:href="#font_0_14" transform="matrix(9.9626,0,0,-9.9626,216.85588,99.16901)"/>
<use xlink:href="#font_0_9" transform="matrix(9.9626,0,0,-9.9626,220.9007,99.278598)"/>
<use xlink:href="#font_0_16" transform="matrix(9.9626,0,0,-9.9626,225.65285,99.278598)"/>
<use xlink:href="#font_0_c" transform="matrix(9.9626,0,0,-9.9626,229.61797,99.278598)"/>
<use xlink:href="#font_0_10" transform="matrix(9.9626,0,0,-9.9626,237.40874,99.16901)"/>
<use xlink:href="#font_0_16" transform="matrix(9.9626,0,0,-9.9626,240.03887,99.278598)"/>
<use xlink:href="#font_0_15" transform="matrix(9.9626,0,0,-9.9626,244.0538,99.278598)"/>
<use xlink:href="#font_0_c" transform="matrix(9.9626,0,0,-9.9626,247.92925,99.278598)"/>
<use xlink:href="#font_0_11" transform="matrix(9.9626,0,0,-9.9626,252.40247,99.16901)"/>
<use xlink:href="#font_0_d" transform="matrix(9.9626,0,0,-9.9626,255.17208,99.16901)"/>
<use xlink:href="#font_0_10" transform="matrix(9.9626,0,0,-9.9626,261.53819,99.16901)"/>
<use xlink:href="#font_0_15" transform="matrix(9.9626,0,0,-9.9626,264.30778,99.278598)"/>
<use xlink:href="#font_0_10" transform="matrix(9.9626,0,0,-9.9626,271.56056,99.16901)"/>
<use xlink:href="#font_0_12" transform="matrix(9.9626,0,0,-9.9626,274.3202,99.16901)"/>
<use xlink:href="#font_0_a" transform="matrix(9.9626,0,0,-9.9626,279.86936,99.278598)"/>
<use xlink:href="#font_0_14" transform="matrix(9.9626,0,0,-9.9626,284.24296,99.16901)"/>
<use xlink:href="#font_0_c" transform="matrix(9.9626,0,0,-9.9626,288.13835,99.278598)"/>
<use xlink:href="#font_0_9" transform="matrix(9.9626,0,0,-9.9626,292.71116,99.278598)"/>
<use xlink:href="#font_0_15" transform="matrix(9.9626,0,0,-9.9626,297.60279,99.278598)"/>
<use xlink:href="#font_0_4" transform="matrix(9.9626,0,0,-9.9626,301.30888,97.306)"/>
<use xlink:href="#font_0_10" transform="matrix(9.9626,0,0,-9.9626,173.72777,111.12501)"/>
<use xlink:href="#font_0_12" transform="matrix(9.9626,0,0,-9.9626,176.48741,111.12501)"/>
<use xlink:href="#font_0_e" transform="matrix(9.9626,0,0,-9.9626,181.98676,113.17731)"/>
<use xlink:href="#font_0_5" transform="matrix(9.9626,0,0,-9.9626,187.54589,111.12501)"/>
<use xlink:href="#font_0_7" transform="matrix(9.9626,0,0,-9.9626,194.71895,111.12501)"/>
<use xlink:href="#font_0_12" transform="matrix(9.9626,0,0,-9.9626,198.3553,111.12501)"/>
<use xlink:href="#font_0_16" transform="matrix(9.9626,0,0,-9.9626,207.08254,111.2346)"/>
<use xlink:href="#font_0_f" transform="matrix(9.9626,0,0,-9.9626,211.08751,111.12501)"/>
<use xlink:href="#font_0_10" transform="matrix(9.9626,0,0,-9.9626,216.63668,111.12501)"/>
<use xlink:href="#font_0_15" transform="matrix(9.9626,0,0,-9.9626,219.40628,111.2346)"/>
<use xlink:href="#font_0_a" transform="matrix(9.9626,0,0,-9.9626,226.65906,111.2346)"/>
<use xlink:href="#font_0_9" transform="matrix(9.9626,0,0,-9.9626,231.17212,111.2346)"/>
<use xlink:href="#font_0_15" transform="matrix(9.9626,0,0,-9.9626,236.06375,111.2346)"/>
<use xlink:href="#font_0_c" transform="matrix(9.9626,0,0,-9.9626,239.9392,111.2346)"/>
<use xlink:href="#font_0_16" transform="matrix(9.9626,0,0,-9.9626,247.59049,111.2346)"/>
<use xlink:href="#font_0_f" transform="matrix(9.9626,0,0,-9.9626,251.59546,111.12501)"/>
<use xlink:href="#font_0_c" transform="matrix(9.9626,0,0,-9.9626,257.09483,111.2346)"/>
<use xlink:href="#font_0_a" transform="matrix(9.9626,0,0,-9.9626,264.8955,111.2346)"/>
<use xlink:href="#font_0_17" transform="matrix(9.9626,0,0,-9.9626,269.299,111.2346)"/>
<use xlink:href="#font_0_14" transform="matrix(9.9626,0,0,-9.9626,274.79838,111.12501)"/>
<use xlink:href="#font_0_18" transform="matrix(9.9626,0,0,-9.9626,278.61405,111.2346)"/>
<use xlink:href="#font_0_c" transform="matrix(9.9626,0,0,-9.9626,283.685,111.2346)"/>
<use xlink:href="#font_1_4" transform="matrix(9.9626,0,0,-9.9626,173.68791,125.122348)"/>
<use xlink:href="#font_0_6" transform="matrix(9.9626,0,0,-9.9626,181.96591,121.75498)"/>
<use xlink:href="#font_1_2" transform="matrix(9.9626,0,0,-9.9626,192.07445,125.122348)"/>
<use xlink:href="#font_0_1" transform="matrix(9.9626,0,0,-9.9626,198.0203,125.570659)"/>
<use xlink:href="#font_1_3" transform="matrix(9.9626,0,0,-9.9626,201.1969,123.1896)"/>
<use xlink:href="#font_0_2" transform="matrix(9.9626,0,0,-9.9626,207.16986,125.570659)"/>
<use xlink:href="#font_0_10" transform="matrix(9.9626,0,0,-9.9626,210.80622,123.08001)"/>
<use xlink:href="#font_0_15" transform="matrix(9.9626,0,0,-9.9626,213.57582,123.1896)"/>
<symbol id="font_2_8">
<path d="M .393 .078 L .393 0 L .57 .006 L .57 .053000004 C .508 .053000004 .501 .053000004 .501 .092 L .501 .45600004 L .31800003 .44800005 L .31800003 .40100003 C .38 .40100003 .38700003 .40100003 .38700003 .36200003 L .38700003 .171 C .38700003 .089 .33600004 .036000004 .263 .036000004 C .186 .036000004 .18300002 .061000006 .18300002 .115 L .18300002 .45600004 L 0 .44800005 L 0 .40100003 C .062000008 .40100003 .069000009 .40100003 .069000009 .36200003 L .069000009 .12900001 C .069000009 .022 .15 0 .249 0 C .27500005 0 .347 0 .393 .078 Z "/>
</symbol>
<symbol id="font_2_7">
<path d="M .18300002 .523 C .18300002 .54200008 .18400002 .543 .19800002 .55700007 C .238 .59800007 .29000003 .60400006 .312 .60400006 C .379 .60400006 .43500004 .543 .43500004 .417 C .43500004 .27600003 .365 .224 .3 .224 C .286 .224 .23900002 .224 .194 .278 C .18300002 .291 .18300002 .292 .18300002 .31100003 L .18300002 .523 M .18300002 .23300001 C .22600001 .198 .27 .18800001 .31100003 .18800001 C .46100004 .18800001 .563 .278 .563 .417 C .563 .55 .472 .64400008 .328 .64400008 C .25300003 .64400008 .20000002 .61300006 .17700002 .595 L .17700002 .64400008 L 0 .63600006 L 0 .589 C .062000008 .589 .069000009 .589 .069000009 .551 L .069000009 .047000007 L 0 .047000007 L 0 0 C .028000005 .001000002 .088 .0029999912 .126 .0029999912 C .165 .0029999912 .224 .001000002 .252 0 L .252 .047000007 L .18300002 .047000007 L .18300002 .23300001 Z "/>
</symbol>
<use xlink:href="#font_2_2" transform="matrix(9.9626,0,0,-9.9626,220.87258,123.139789)"/>
<use xlink:href="#font_2_6" transform="matrix(9.9626,0,0,-9.9626,225.90367,123.139789)"/>
<use xlink:href="#font_2_5" transform="matrix(9.9626,0,0,-9.9626,231.76169,123.08001)"/>
<use xlink:href="#font_2_2" transform="matrix(9.9626,0,0,-9.9626,238.05806,123.139789)"/>
<use xlink:href="#font_2_1" transform="matrix(9.9626,0,0,-9.9626,243.08916,123.139789)"/>
<use xlink:href="#font_2_9" transform="matrix(9.9626,0,0,-9.9626,248.27968,123.11986)"/>
<use xlink:href="#font_2_4" transform="matrix(9.9626,0,0,-9.9626,254.06795,123.139789)"/>
<use xlink:href="#font_2_8" transform="matrix(9.9626,0,0,-9.9626,262.7653,123.139789)"/>
<use xlink:href="#font_2_7" transform="matrix(9.9626,0,0,-9.9626,269.0517,125.01276)"/>
<use xlink:href="#font_0_5" transform="matrix(9.9626,0,0,-9.9626,275.90977,123.08001)"/>
</svg>
